<svg id="svg" version="1.1" xmlns="http://www.w3.org/2000/svg" xmlns:xlink="http://www.w3.org/1999/xlink" width="400" height="400" viewBox="0, 0, 400,400"><g id="svgg"><path id="path0" d="M46.016 70.875 C 45.055 71.906,44.691 191.221,45.640 193.943 C 46.264 195.733,44.699 195.662,80.022 195.501 L 112.200 195.354 117.924 194.275 C 121.073 193.681,124.133 192.948,124.724 192.646 C 125.316 192.344,126.427 191.961,127.194 191.796 C 133.800 190.371,142.261 182.680,146.401 174.334 C 154.519 157.972,145.630 135.027,129.699 131.221 C 126.461 130.448,126.952 129.254,131.253 127.447 C 150.563 119.334,151.655 91.368,133.200 77.592 C 123.664 70.475,120.312 70.020,77.316 70.008 L 46.831 70.000 46.016 70.875 M182.705 70.619 C 182.088 70.958,181.505 71.696,181.369 72.310 C 181.115 73.456,179.753 77.889,178.208 82.600 C 177.703 84.140,176.794 87.020,176.189 89.000 C 173.856 96.639,172.698 100.274,171.984 102.200 C 171.577 103.300,170.972 105.190,170.641 106.400 C 169.397 110.943,168.394 114.244,167.847 115.600 C 167.537 116.370,166.646 119.070,165.868 121.600 C 164.329 126.607,160.886 137.621,159.367 142.400 C 158.842 144.050,158.136 146.300,157.796 147.400 C 157.457 148.500,156.723 150.840,156.167 152.600 C 153.778 160.151,153.110 162.367,152.369 165.200 C 151.938 166.850,151.321 168.673,150.999 169.251 C 150.676 169.829,150.209 171.269,149.960 172.451 C 149.710 173.633,149.271 175.050,148.982 175.600 C 148.693 176.150,147.800 178.850,146.996 181.600 C 146.192 184.350,145.176 187.500,144.737 188.600 C 143.658 191.307,143.295 194.761,144.040 195.233 C 144.668 195.631,168.769 195.740,169.786 195.350 C 170.655 195.016,172.171 191.920,172.796 189.200 C 173.074 187.990,173.571 186.370,173.900 185.600 C 174.229 184.830,174.826 182.940,175.227 181.400 C 176.895 174.984,178.040 171.788,178.912 171.109 C 180.050 170.223,213.297 170.040,214.435 170.913 C 215.358 171.622,216.034 173.045,216.846 175.993 C 217.241 177.427,218.115 180.400,218.789 182.600 C 219.463 184.800,220.384 187.949,220.836 189.599 C 221.803 193.132,222.931 195.120,224.133 195.411 C 227.333 196.185,307.565 195.331,312.200 194.473 C 317.298 193.530,322.763 191.994,325.400 190.762 C 326.280 190.351,327.630 189.741,328.400 189.406 C 329.170 189.071,330.610 188.262,331.600 187.607 C 332.590 186.952,333.787 186.244,334.261 186.033 C 337.018 184.806,345.361 176.487,348.136 172.200 C 348.705 171.320,349.688 169.872,350.320 168.981 C 352.408 166.041,355.341 159.450,357.077 153.800 C 360.985 141.074,361.010 123.507,357.138 110.800 C 355.504 105.440,352.919 99.892,350.387 96.314 C 349.720 95.371,348.872 94.150,348.504 93.600 C 343.970 86.830,330.764 75.200,327.611 75.200 C 327.258 75.200,326.261 74.839,325.396 74.398 C 318.837 71.054,307.864 70.013,279.100 70.005 C 258.490 70.000,257.981 70.019,257.195 70.805 C 256.396 71.604,256.391 72.021,256.405 130.412 C 256.422 196.723,256.486 195.437,253.626 186.000 C 251.291 178.297,249.921 173.832,248.777 170.200 C 248.153 168.220,247.253 165.250,246.776 163.600 C 246.300 161.950,245.498 159.340,244.995 157.800 C 244.492 156.260,243.516 153.110,242.827 150.800 C 242.137 148.490,241.143 145.250,240.617 143.600 C 240.092 141.950,239.092 138.710,238.397 136.400 C 237.701 134.090,236.877 131.609,236.566 130.886 C 236.255 130.164,236.000 129.308,236.000 128.985 C 236.000 128.425,234.614 123.845,232.616 117.800 C 232.107 116.260,231.118 113.020,230.419 110.600 C 229.720 108.180,228.826 105.210,228.433 104.000 C 227.760 101.933,226.857 99.007,223.927 89.400 C 223.256 87.200,222.298 84.140,221.799 82.600 C 220.315 78.028,219.215 74.284,218.953 72.920 C 218.418 70.125,218.979 70.210,200.458 70.109 C 186.271 70.032,183.638 70.107,182.705 70.619 M106.340 96.017 C 116.105 98.827,115.096 114.549,104.970 117.372 C 102.121 118.167,82.570 118.821,79.407 118.228 C 77.352 117.842,77.200 117.034,77.200 106.458 C 77.200 96.737,77.300 96.048,78.800 95.455 C 79.970 94.992,104.518 95.493,106.340 96.017 M307.600 97.396 C 311.866 98.765,313.524 99.746,316.489 102.654 C 318.501 104.628,322.800 110.869,322.800 111.817 C 322.800 111.985,323.242 113.056,323.781 114.197 C 324.321 115.338,325.057 117.605,325.416 119.236 C 325.776 120.866,326.262 123.010,326.496 124.000 C 327.034 126.278,327.023 137.611,326.479 140.000 C 326.254 140.990,325.780 143.150,325.425 144.800 C 322.065 160.443,312.735 168.341,297.200 168.695 C 286.890 168.930,288.222 174.011,288.080 133.932 C 287.952 97.604,287.967 97.147,289.316 96.453 C 291.161 95.504,303.722 96.152,307.600 97.396 M198.773 112.000 C 200.508 117.522,201.899 122.261,202.589 125.000 C 203.571 128.896,206.433 139.140,207.468 142.466 C 207.868 143.749,206.311 143.975,196.810 144.015 C 186.855 144.056,185.443 143.788,186.382 142.034 C 186.578 141.668,187.104 140.025,187.550 138.384 C 187.997 136.743,188.924 133.510,189.610 131.200 C 190.297 128.890,191.184 125.650,191.582 124.000 C 191.980 122.350,192.675 119.830,193.126 118.400 C 193.577 116.970,194.336 114.450,194.813 112.800 C 196.710 106.234,196.947 106.186,198.773 112.000 M104.905 144.016 C 120.198 146.843,119.499 166.422,104.019 168.824 C 99.963 169.454,78.702 169.150,77.861 168.451 C 76.858 167.618,76.859 145.439,77.862 144.331 C 78.636 143.476,100.598 143.220,104.905 144.016 " stroke="none" fill="#fc0808" fill-rule="evenodd"></path><path id="path1" d="M1.200 0.600 C 1.200 0.930,0.930 1.200,0.600 1.200 C 0.067 1.200,0.000 23.622,0.000 200.600 L 0.000 400.000 200.000 400.000 L 400.000 400.000 400.000 200.600 C 400.000 23.622,399.933 1.200,399.400 1.200 C 399.070 1.200,398.800 0.930,398.800 0.600 C 398.800 0.067,376.444 0.000,200.000 0.000 C 23.556 0.000,1.200 0.067,1.200 0.600 M396.011 3.867 C 396.555 4.234,397.046 4.565,397.102 4.602 C 397.335 4.758,397.181 395.584,396.947 396.194 C 396.412 397.588,394.793 397.600,199.828 397.600 L 4.908 397.600 3.854 396.771 L 2.800 395.942 2.800 200.400 L 2.800 4.858 3.854 4.029 L 4.908 3.200 199.965 3.200 C 381.438 3.200,395.091 3.246,396.011 3.867 M50.228 228.502 C 49.673 229.348,49.399 272.029,49.597 326.671 C 49.605 328.874,48.675 328.800,76.529 328.798 C 104.443 328.796,109.554 328.428,114.800 326.038 C 115.790 325.587,116.843 325.214,117.140 325.209 C 120.178 325.159,126.681 318.797,130.231 312.400 C 131.269 310.530,132.181 308.925,132.259 308.833 C 132.595 308.436,132.826 309.268,133.245 312.377 C 135.751 331.000,163.459 337.100,176.279 321.851 C 179.254 318.314,180.244 318.561,180.476 322.900 C 180.573 324.715,180.913 326.740,181.231 327.400 L 181.810 328.600 191.712 328.707 L 201.614 328.814 202.035 327.708 C 202.266 327.100,202.332 326.152,202.181 325.601 C 202.030 325.050,201.773 313.080,201.610 299.000 C 201.264 269.186,201.175 268.284,198.132 263.683 C 193.166 256.175,184.337 252.668,170.400 252.668 C 153.080 252.667,141.301 258.633,136.871 269.648 C 134.500 275.543,134.948 276.082,142.829 276.803 C 154.702 277.889,155.568 277.758,156.400 274.758 C 158.719 266.393,172.685 264.220,177.502 271.475 C 178.737 273.334,178.909 273.929,179.100 276.985 C 179.425 282.198,179.979 281.899,167.600 283.191 C 163.530 283.616,159.660 284.142,159.000 284.360 C 158.340 284.577,156.270 285.050,154.400 285.410 C 145.860 287.055,137.195 293.510,135.217 299.700 C 134.435 302.149,133.398 301.394,132.802 297.942 C 131.173 288.508,126.939 282.831,118.200 278.365 C 113.872 276.154,113.850 276.039,117.400 274.163 C 120.609 272.468,124.616 269.272,125.795 267.467 C 134.501 254.137,129.519 237.314,114.925 230.766 C 108.982 228.100,106.383 227.890,77.125 227.713 L 50.849 227.553 50.228 228.502 M284.908 227.881 C 284.287 228.001,283.886 228.501,283.589 229.527 C 282.887 231.948,283.235 327.278,283.949 328.139 C 284.778 329.138,302.820 329.139,303.651 328.140 C 304.067 327.639,304.248 325.258,304.400 318.307 C 304.568 310.586,304.700 309.060,305.229 308.667 C 305.575 308.410,307.006 306.850,308.408 305.200 C 309.811 303.550,311.483 301.660,312.124 301.000 C 312.765 300.340,313.743 299.125,314.298 298.300 C 314.853 297.475,315.507 296.798,315.753 296.795 C 315.999 296.792,316.568 296.690,317.017 296.570 C 317.718 296.381,318.026 296.794,319.192 299.475 C 319.939 301.194,321.597 304.802,322.875 307.493 C 324.154 310.184,325.204 312.614,325.209 312.893 C 325.214 313.172,325.570 313.850,326.000 314.400 C 326.430 314.950,326.786 315.590,326.791 315.821 C 326.796 316.053,327.237 317.133,327.772 318.221 C 329.220 321.167,331.053 325.280,331.369 326.290 C 332.117 328.679,332.922 328.823,344.871 328.706 L 355.800 328.600 355.926 327.061 C 356.002 326.144,355.824 325.254,355.487 324.861 C 355.176 324.497,352.981 320.240,350.609 315.400 C 348.237 310.560,343.405 300.750,339.871 293.600 C 333.065 279.830,332.792 279.002,334.513 277.349 C 335.001 276.880,335.757 276.070,336.194 275.549 C 340.832 270.011,344.174 266.056,344.775 265.392 C 345.177 264.948,346.631 263.238,348.006 261.593 C 349.380 259.948,350.817 258.384,351.197 258.117 C 352.330 257.323,353.001 255.324,352.383 254.580 C 351.940 254.046,350.549 253.977,342.289 254.080 L 332.709 254.200 330.896 256.200 C 329.260 258.005,319.448 269.553,311.472 279.062 C 309.782 281.076,308.400 282.886,308.400 283.084 C 308.400 283.281,307.782 284.042,307.026 284.774 C 304.267 287.449,304.400 288.812,304.400 257.831 C 304.400 228.737,304.375 228.302,302.651 227.839 C 301.686 227.580,286.277 227.617,284.908 227.881 M100.200 247.061 C 107.988 251.253,107.216 263.992,99.011 266.681 C 95.973 267.677,75.607 267.958,74.181 267.024 L 73.200 266.382 73.200 256.671 C 73.200 249.437,73.328 246.832,73.700 246.456 C 74.685 245.465,98.232 246.002,100.200 247.061 M247.200 252.792 C 241.276 253.930,234.903 258.338,233.163 262.500 C 232.114 265.008,230.158 263.056,230.648 259.991 C 231.069 257.356,230.519 254.983,229.365 254.457 C 227.492 253.603,211.465 253.844,210.656 254.738 C 209.688 255.808,209.829 327.795,210.800 328.409 C 212.246 329.323,230.701 328.876,231.377 327.911 C 231.922 327.133,232.000 324.303,232.001 305.211 C 232.002 282.349,232.369 277.566,234.310 275.157 C 238.372 270.119,242.772 268.642,247.424 270.755 C 252.418 273.023,252.488 273.452,252.661 302.800 C 252.796 325.644,252.867 327.843,253.481 328.300 C 254.813 329.291,273.871 328.988,274.418 327.967 C 274.734 327.375,274.850 319.399,274.817 300.485 L 274.770 273.836 273.763 269.349 C 272.314 262.887,269.567 258.444,265.824 256.509 C 265.151 256.161,264.150 255.557,263.600 255.168 C 261.099 253.397,251.381 251.989,247.200 252.792 M97.606 286.201 C 106.170 288.082,110.491 295.984,106.837 303.080 C 103.899 308.784,99.575 310.101,84.374 309.920 C 71.844 309.770,73.198 311.213,73.205 298.024 C 73.212 286.179,73.225 286.089,74.941 285.922 C 77.454 285.678,96.280 285.910,97.606 286.201 M178.805 294.206 C 181.172 297.058,177.654 309.914,173.565 313.351 C 162.883 322.331,150.072 309.342,159.892 299.488 C 163.673 295.693,176.959 291.982,178.805 294.206 " stroke="none" fill="#111111" fill-rule="evenodd"></path><path id="path2" d="M0.000 0.600 C 0.000 0.930,0.270 1.200,0.600 1.200 C 0.930 1.200,1.200 0.930,1.200 0.600 C 1.200 0.270,0.930 0.000,0.600 0.000 C 0.270 0.000,0.000 0.270,0.000 0.600 M398.800 0.600 C 398.800 0.930,399.070 1.200,399.400 1.200 C 399.730 1.200,400.000 0.930,400.000 0.600 C 400.000 0.270,399.730 0.000,399.400 0.000 C 399.070 0.000,398.800 0.270,398.800 0.600 M3.854 4.029 L 2.800 4.858 2.800 200.400 L 2.800 395.942 3.854 396.771 L 4.908 397.600 199.828 397.600 C 394.793 397.600,396.412 397.588,396.947 396.194 C 397.181 395.584,397.335 4.758,397.102 4.602 C 397.046 4.565,396.555 4.234,396.011 3.867 C 395.091 3.246,381.438 3.200,199.965 3.200 L 4.908 3.200 3.854 4.029 M113.600 70.588 C 122.260 71.441,127.437 73.291,133.200 77.592 C 151.655 91.368,150.563 119.334,131.253 127.447 C 126.952 129.254,126.461 130.448,129.699 131.221 C 145.630 135.027,154.519 157.972,146.401 174.334 C 142.261 182.680,133.800 190.371,127.194 191.796 C 126.427 191.961,125.316 192.344,124.724 192.646 C 124.133 192.948,121.073 193.681,117.924 194.275 L 112.200 195.354 80.022 195.501 C 44.699 195.662,46.264 195.733,45.640 193.943 C 44.691 191.221,45.055 71.906,46.016 70.875 L 46.831 70.000 77.316 70.008 C 100.709 70.015,109.149 70.149,113.600 70.588 M217.912 70.920 C 218.350 71.317,218.818 72.217,218.953 72.920 C 219.215 74.284,220.315 78.028,221.799 82.600 C 222.298 84.140,223.256 87.200,223.927 89.400 C 226.857 99.007,227.760 101.933,228.433 104.000 C 228.826 105.210,229.720 108.180,230.419 110.600 C 231.118 113.020,232.107 116.260,232.616 117.800 C 234.614 123.845,236.000 128.425,236.000 128.985 C 236.000 129.308,236.255 130.164,236.566 130.886 C 236.877 131.609,237.701 134.090,238.397 136.400 C 239.092 138.710,240.092 141.950,240.617 143.600 C 241.143 145.250,242.137 148.490,242.827 150.800 C 243.516 153.110,244.492 156.260,244.995 157.800 C 245.498 159.340,246.300 161.950,246.776 163.600 C 247.253 165.250,248.153 168.220,248.777 170.200 C 249.921 173.832,251.291 178.297,253.626 186.000 C 256.486 195.437,256.422 196.723,256.405 130.412 C 256.391 72.021,256.396 71.604,257.195 70.805 C 257.981 70.019,258.490 70.000,279.100 70.005 C 307.864 70.013,318.837 71.054,325.396 74.398 C 326.261 74.839,327.258 75.200,327.611 75.200 C 330.764 75.200,343.970 86.830,348.504 93.600 C 348.872 94.150,349.720 95.371,350.387 96.314 C 352.919 99.892,355.504 105.440,357.138 110.800 C 361.010 123.507,360.985 141.074,357.077 153.800 C 355.341 159.450,352.408 166.041,350.320 168.981 C 349.688 169.872,348.705 171.320,348.136 172.200 C 345.361 176.487,337.018 184.806,334.261 186.033 C 333.787 186.244,332.590 186.952,331.600 187.607 C 330.610 188.262,329.170 189.071,328.400 189.406 C 327.630 189.741,326.280 190.351,325.400 190.762 C 322.763 191.994,317.298 193.530,312.200 194.473 C 307.565 195.331,227.333 196.185,224.133 195.411 C 222.931 195.120,221.803 193.132,220.836 189.599 C 220.384 187.949,219.463 184.800,218.789 182.600 C 218.115 180.400,217.241 177.427,216.846 175.993 C 216.034 173.045,215.358 171.622,214.435 170.913 C 213.297 170.040,180.050 170.223,178.912 171.109 C 178.040 171.788,176.895 174.984,175.227 181.400 C 174.826 182.940,174.229 184.830,173.900 185.600 C 173.571 186.370,173.074 187.990,172.796 189.200 C 172.171 191.920,170.655 195.016,169.786 195.350 C 168.769 195.740,144.668 195.631,144.040 195.233 C 143.295 194.761,143.658 191.307,144.737 188.600 C 145.176 187.500,146.192 184.350,146.996 181.600 C 147.800 178.850,148.693 176.150,148.982 175.600 C 149.271 175.050,149.710 173.633,149.960 172.451 C 150.209 171.269,150.676 169.829,150.999 169.251 C 151.321 168.673,151.938 166.850,152.369 165.200 C 153.110 162.367,153.778 160.151,156.167 152.600 C 156.723 150.840,157.457 148.500,157.796 147.400 C 158.136 146.300,158.842 144.050,159.367 142.400 C 160.886 137.621,164.329 126.607,165.868 121.600 C 166.646 119.070,167.537 116.370,167.847 115.600 C 168.394 114.244,169.397 110.943,170.641 106.400 C 170.972 105.190,171.577 103.300,171.984 102.200 C 172.698 100.274,173.856 96.639,176.189 89.000 C 176.794 87.020,177.703 84.140,178.208 82.600 C 179.753 77.889,181.115 73.456,181.369 72.310 C 181.869 70.049,182.213 70.010,200.458 70.109 C 215.868 70.193,217.176 70.254,217.912 70.920 M78.800 95.455 C 77.300 96.048,77.200 96.737,77.200 106.458 C 77.200 117.034,77.352 117.842,79.407 118.228 C 82.570 118.821,102.121 118.167,104.970 117.372 C 115.096 114.549,116.105 98.827,106.340 96.017 C 104.518 95.493,79.970 94.992,78.800 95.455 M289.316 96.453 C 287.967 97.147,287.952 97.604,288.080 133.932 C 288.222 174.011,286.890 168.930,297.200 168.695 C 312.735 168.341,322.065 160.443,325.425 144.800 C 325.780 143.150,326.254 140.990,326.479 140.000 C 327.023 137.611,327.034 126.278,326.496 124.000 C 326.262 123.010,325.776 120.866,325.416 119.236 C 325.057 117.605,324.321 115.338,323.781 114.197 C 323.242 113.056,322.800 111.985,322.800 111.817 C 322.800 109.788,315.839 101.352,312.565 99.414 C 308.003 96.713,292.619 94.753,289.316 96.453 M196.309 108.488 C 195.963 109.210,195.289 111.150,194.813 112.800 C 194.336 114.450,193.577 116.970,193.126 118.400 C 192.675 119.830,191.980 122.350,191.582 124.000 C 191.184 125.650,190.297 128.890,189.610 131.200 C 188.924 133.510,187.997 136.743,187.550 138.384 C 187.104 140.025,186.578 141.668,186.382 142.034 C 185.443 143.788,186.855 144.056,196.810 144.015 C 206.311 143.975,207.868 143.749,207.468 142.466 C 206.433 139.140,203.571 128.896,202.589 125.000 C 201.393 120.251,197.781 108.522,197.259 107.688 C 197.033 107.328,196.753 107.564,196.309 108.488 M77.862 144.331 C 76.859 145.439,76.858 167.618,77.861 168.451 C 78.702 169.150,99.963 169.454,104.019 168.824 C 119.499 166.422,120.198 146.843,104.905 144.016 C 100.598 143.220,78.636 143.476,77.862 144.331 M107.814 228.714 C 127.326 232.436,136.193 251.547,125.795 267.467 C 124.616 269.272,120.609 272.468,117.400 274.163 C 113.850 276.039,113.872 276.154,118.200 278.365 C 126.939 282.831,131.173 288.508,132.802 297.942 C 133.398 301.394,134.435 302.149,135.217 299.700 C 137.195 293.510,145.860 287.055,154.400 285.410 C 156.270 285.050,158.340 284.577,159.000 284.360 C 159.660 284.142,163.530 283.616,167.600 283.191 C 179.979 281.899,179.425 282.198,179.100 276.985 C 178.909 273.929,178.737 273.334,177.502 271.475 C 172.685 264.220,158.719 266.393,156.400 274.758 C 155.568 277.758,154.702 277.889,142.829 276.803 C 134.948 276.082,134.500 275.543,136.871 269.648 C 141.301 258.633,153.080 252.667,170.400 252.668 C 184.337 252.668,193.166 256.175,198.132 263.683 C 201.175 268.284,201.264 269.186,201.610 299.000 C 201.773 313.080,202.030 325.050,202.181 325.601 C 202.332 326.152,202.266 327.100,202.035 327.708 L 201.614 328.814 191.712 328.707 L 181.810 328.600 181.231 327.400 C 180.913 326.740,180.573 324.715,180.476 322.900 C 180.244 318.561,179.254 318.314,176.279 321.851 C 163.459 337.100,135.751 331.000,133.245 312.377 C 132.826 309.268,132.595 308.436,132.259 308.833 C 132.181 308.925,131.269 310.530,130.231 312.400 C 126.681 318.797,120.178 325.159,117.140 325.209 C 116.843 325.214,115.790 325.587,114.800 326.038 C 109.554 328.428,104.443 328.796,76.529 328.798 C 48.675 328.800,49.605 328.874,49.597 326.671 C 49.399 272.029,49.673 229.348,50.228 228.502 L 50.849 227.553 77.125 227.713 C 101.792 227.862,103.670 227.924,107.814 228.714 M302.651 227.839 C 304.375 228.302,304.400 228.737,304.400 257.831 C 304.400 288.812,304.267 287.449,307.026 284.774 C 307.782 284.042,308.400 283.281,308.400 283.084 C 308.400 282.886,309.782 281.076,311.472 279.062 C 319.448 269.553,329.260 258.005,330.896 256.200 L 332.709 254.200 342.289 254.080 C 350.549 253.977,351.940 254.046,352.383 254.580 C 353.001 255.324,352.330 257.323,351.197 258.117 C 350.817 258.384,349.380 259.948,348.006 261.593 C 346.631 263.238,345.177 264.948,344.775 265.392 C 344.174 266.056,340.832 270.011,336.194 275.549 C 335.757 276.070,335.001 276.880,334.513 277.349 C 332.792 279.002,333.065 279.830,339.871 293.600 C 343.405 300.750,348.237 310.560,350.609 315.400 C 352.981 320.240,355.176 324.497,355.487 324.861 C 355.824 325.254,356.002 326.144,355.926 327.061 L 355.800 328.600 344.871 328.706 C 332.922 328.823,332.117 328.679,331.369 326.290 C 331.053 325.280,329.220 321.167,327.772 318.221 C 327.237 317.133,326.796 316.053,326.791 315.821 C 326.786 315.590,326.430 314.950,326.000 314.400 C 325.570 313.850,325.214 313.172,325.209 312.893 C 325.204 312.614,324.154 310.184,322.875 307.493 C 321.597 304.802,319.939 301.194,319.192 299.475 C 318.026 296.794,317.718 296.381,317.017 296.570 C 316.568 296.690,315.999 296.792,315.753 296.795 C 315.507 296.798,314.853 297.475,314.298 298.300 C 313.743 299.125,312.765 300.340,312.124 301.000 C 311.483 301.660,309.811 303.550,308.408 305.200 C 307.006 306.850,305.575 308.410,305.229 308.667 C 304.700 309.060,304.568 310.586,304.400 318.307 C 304.248 325.258,304.067 327.639,303.651 328.140 C 302.820 329.139,284.778 329.138,283.949 328.139 C 283.235 327.278,282.887 231.948,283.589 229.527 C 283.886 228.501,284.287 228.001,284.908 227.881 C 286.277 227.617,301.686 227.580,302.651 227.839 M73.700 246.456 C 73.328 246.832,73.200 249.437,73.200 256.671 L 73.200 266.382 74.181 267.024 C 75.607 267.958,95.973 267.677,99.011 266.681 C 107.216 263.992,107.988 251.253,100.200 247.061 C 98.232 246.002,74.685 245.465,73.700 246.456 M259.600 253.660 C 261.250 254.100,263.050 254.779,263.600 255.168 C 264.150 255.557,265.151 256.161,265.824 256.509 C 269.567 258.444,272.314 262.887,273.763 269.349 L 274.770 273.836 274.817 300.485 C 274.850 319.399,274.734 327.375,274.418 327.967 C 273.871 328.988,254.813 329.291,253.481 328.300 C 252.867 327.843,252.796 325.644,252.661 302.800 C 252.488 273.452,252.418 273.023,247.424 270.755 C 242.772 268.642,238.372 270.119,234.310 275.157 C 232.369 277.566,232.002 282.349,232.001 305.211 C 232.000 324.303,231.922 327.133,231.377 327.911 C 230.701 328.876,212.246 329.323,210.800 328.409 C 209.829 327.795,209.688 255.808,210.656 254.738 C 211.465 253.844,227.492 253.603,229.365 254.457 C 230.519 254.983,231.069 257.356,230.648 259.991 C 230.158 263.056,232.114 265.008,233.163 262.500 C 236.438 254.665,248.386 250.670,259.600 253.660 M74.941 285.922 C 73.225 286.089,73.212 286.179,73.205 298.024 C 73.198 311.213,71.844 309.770,84.374 309.920 C 99.575 310.101,103.899 308.784,106.837 303.080 C 110.491 295.984,106.170 288.082,97.606 286.201 C 96.280 285.910,77.454 285.678,74.941 285.922 M172.142 294.016 C 159.852 296.448,153.520 304.060,157.605 311.490 C 163.759 322.684,178.465 314.621,179.099 299.706 C 179.373 293.278,178.690 292.720,172.142 294.016 " stroke="none" fill="#fbfbfb" fill-rule="evenodd"></path></g></svg>